<svg width="16" height="16" viewBox="0 0 16 16" fill="none" xmlns="http://www.w3.org/2000/svg">
<path d="M3.53134 5.27769V15.2319H0.216605V5.27769H3.53134ZM3.74227 2.20403C3.74897 2.69287 3.57989 3.10135 3.23502 3.42948C2.89015 3.7576 2.43647 3.92167 1.87397 3.92167H1.85388C1.30477 3.92167 0.86281 3.7576 0.527989 3.42948C0.193168 3.10135 0.0257568 2.69287 0.0257568 2.20403C0.0257568 1.7085 0.19819 1.29834 0.543056 0.973563C0.887922 0.648787 1.33826 0.486398 1.89406 0.486398C2.44986 0.486398 2.89518 0.648787 3.23 0.973563C3.56482 1.29834 3.73558 1.7085 3.74227 2.20403ZM15.4543 9.52658V15.2319H12.1496V9.90827C12.1496 9.20515 12.014 8.65437 11.7428 8.25593C11.4716 7.85749 11.0481 7.65827 10.4722 7.65827C10.0503 7.65827 9.69707 7.77379 9.41248 8.00481C9.12788 8.23584 8.91527 8.52211 8.77464 8.86363C8.70098 9.06452 8.66415 9.33573 8.66415 9.67725V15.2319H5.35946C5.37286 12.5601 5.37955 10.3938 5.37955 8.73305C5.37955 7.07234 5.3762 6.08126 5.36951 5.75984L5.35946 5.27769H8.66415V6.72412H8.64406C8.77799 6.50984 8.91527 6.32234 9.05589 6.16162C9.19652 6.00091 9.38569 5.8268 9.62341 5.6393C9.86114 5.4518 10.1524 5.30615 10.4973 5.20236C10.8422 5.09856 11.2255 5.04667 11.6474 5.04667C12.7925 5.04667 13.7133 5.42669 14.4097 6.18673C15.1061 6.94678 15.4543 8.06006 15.4543 9.52658Z" fill="#F0F0F0"/>
</svg>
