<svg width="24" height="16" viewBox="0 0 24 16" fill="none" xmlns="http://www.w3.org/2000/svg">
<path d="M14.8926 8.17083C14.8926 9.56369 14.6014 10.8042 14.0188 11.8924C13.4362 12.9805 12.6058 13.831 11.5277 14.4437C10.4496 15.0564 9.21408 15.3628 7.82122 15.3628C6.82345 15.3628 5.86921 15.1686 4.9585 14.7802C4.04778 14.3918 3.2643 13.8695 2.60805 13.2132C1.9518 12.557 1.42948 11.7735 1.04109 10.8628C0.652693 9.95208 0.458496 8.99784 0.458496 8.00007C0.458496 7.0023 0.652693 6.04806 1.04109 5.13735C1.42948 4.22663 1.9518 3.44315 2.60805 2.7869C3.2643 2.13065 4.04778 1.60833 4.9585 1.21994C5.86921 0.831543 6.82345 0.637346 7.82122 0.637346C9.7364 0.637346 11.3804 1.2802 12.7531 2.56592L10.7543 4.48444C9.97077 3.72775 8.99309 3.3494 7.82122 3.3494C6.99756 3.3494 6.23584 3.55699 5.53606 3.97217C4.83629 4.38735 4.28216 4.95152 3.87367 5.66469C3.46519 6.37786 3.26095 7.15632 3.26095 8.00007C3.26095 8.84382 3.46519 9.62228 3.87367 10.3354C4.28216 11.0486 4.83629 11.6128 5.53606 12.028C6.23584 12.4432 6.99756 12.6507 7.82122 12.6507C8.37702 12.6507 8.88763 12.5737 9.35303 12.4197C9.81843 12.2657 10.2018 12.0732 10.5031 11.8421C10.8045 11.6111 11.0673 11.3483 11.2916 11.0536C11.516 10.759 11.68 10.4811 11.7838 10.2199C11.8876 9.95878 11.9596 9.71101 11.9998 9.47663H7.82122V6.94538H14.7721C14.8525 7.36726 14.8926 7.77574 14.8926 8.17083ZM23.6014 6.94538V9.05476H21.502V11.1541H19.3926V9.05476H17.2933V6.94538H19.3926V4.84605H21.502V6.94538H23.6014Z" fill="#F0F0F0"/>
</svg>
