<svg width="15" height="12" viewBox="0 0 15 12" fill="none" xmlns="http://www.w3.org/2000/svg">
<path d="M12.3417 6.79227V11.078C12.3417 11.2327 12.2852 11.3667 12.1721 11.4798C12.059 11.5929 11.925 11.6494 11.7703 11.6494H8.34171V8.22084H6.056V11.6494H2.62743C2.47266 11.6494 2.33874 11.5929 2.22564 11.4798C2.11255 11.3667 2.056 11.2327 2.056 11.078V6.79227C2.056 6.78632 2.05749 6.77739 2.06046 6.76549C2.06344 6.75358 2.06493 6.74465 2.06493 6.7387L7.19885 2.50656L12.3328 6.7387C12.3387 6.7506 12.3417 6.76846 12.3417 6.79227ZM14.3328 6.1762L13.7792 6.83691C13.7316 6.89049 13.6691 6.92322 13.5917 6.93513H13.5649C13.4875 6.93513 13.425 6.91429 13.3774 6.87263L7.19885 1.72084L1.02028 6.87263C0.948855 6.92025 0.877426 6.94108 0.805998 6.93513C0.728617 6.92322 0.666117 6.89049 0.618498 6.83691L0.0649264 6.1762C0.0173073 6.11668 -0.00352599 6.04674 0.00242639 5.96638C0.00837877 5.88602 0.0411169 5.82203 0.100641 5.77441L6.52028 0.426199C6.71076 0.271438 6.93695 0.194057 7.19885 0.194057C7.46076 0.194057 7.68695 0.271438 7.87743 0.426199L10.056 2.24763V0.506557C10.056 0.423223 10.0828 0.354771 10.1364 0.301199C10.1899 0.247628 10.2584 0.220842 10.3417 0.220842H12.056C12.1393 0.220842 12.2078 0.247628 12.2614 0.301199C12.3149 0.354771 12.3417 0.423223 12.3417 0.506557V4.14941L14.2971 5.77441C14.3566 5.82203 14.3893 5.88602 14.3953 5.96638C14.4012 6.04674 14.3804 6.11668 14.3328 6.1762Z" fill="#FCA311"/>
</svg>
