<svg width="17" height="14" viewBox="0 0 17 14" fill="none" xmlns="http://www.w3.org/2000/svg">
<path d="M16.1332 2.09835C15.6846 2.7546 15.1421 3.31376 14.506 3.77581C14.5127 3.86956 14.516 4.01018 14.516 4.19768C14.516 5.06822 14.3888 5.93708 14.1343 6.80427C13.8799 7.67146 13.4932 8.50349 12.9742 9.30036C12.4552 10.0972 11.8375 10.802 11.1209 11.4148C10.4044 12.0275 9.54059 12.5163 8.52943 12.8813C7.51827 13.2462 6.43679 13.4287 5.28501 13.4287C3.47027 13.4287 1.80956 12.9432 0.302864 11.9722C0.537239 11.999 0.7984 12.0124 1.08635 12.0124C2.59304 12.0124 3.93568 11.5504 5.11425 10.6263C4.41112 10.6129 3.78166 10.3969 3.22586 9.97838C2.67005 9.55985 2.28836 9.02581 2.08077 8.37626C2.30175 8.40974 2.50599 8.42648 2.69349 8.42648C2.98144 8.42648 3.26603 8.38965 3.54728 8.31599C2.79728 8.16197 2.17619 7.78864 1.684 7.19601C1.19181 6.60338 0.945721 5.91532 0.945721 5.13184V5.09166C1.40108 5.34612 1.88992 5.4834 2.41224 5.50349C1.97027 5.20885 1.61871 4.8238 1.35755 4.34835C1.09639 3.87291 0.96581 3.35728 0.96581 2.80148C0.96581 2.21219 1.11313 1.66643 1.40777 1.1642C2.21804 2.16197 3.20409 2.96052 4.36592 3.55985C5.52775 4.15918 6.77161 4.49233 8.09751 4.55929C8.04394 4.30483 8.01715 4.05706 8.01715 3.81599C8.01715 2.91867 8.33356 2.1536 8.96637 1.52079C9.59918 0.887975 10.3642 0.571568 11.2616 0.571568C12.1991 0.571568 12.9892 0.913086 13.6321 1.59612C14.362 1.4555 15.0484 1.19434 15.6913 0.812639C15.4435 1.58273 14.968 2.17871 14.2649 2.60059C14.8877 2.53362 15.5105 2.36621 16.1332 2.09835Z" fill="#242C33"/>
</svg>
