<svg width="24" height="16" viewBox="0 0 24 16" fill="none" xmlns="http://www.w3.org/2000/svg">
<path d="M14.8927 8.17034C14.8927 9.5632 14.6014 10.8037 14.0188 11.8919C13.4362 12.9801 12.6059 13.8305 11.5278 14.4432C10.4496 15.0559 9.21415 15.3623 7.82129 15.3623C6.82352 15.3623 5.86928 15.1681 4.95857 14.7797C4.04785 14.3913 3.26437 13.869 2.60812 13.2128C1.95187 12.5565 1.42955 11.773 1.04116 10.8623C0.652765 9.95159 0.458569 8.99735 0.458569 7.99958C0.458569 7.00181 0.652765 6.04757 1.04116 5.13686C1.42955 4.22614 1.95187 3.44266 2.60812 2.78641C3.26437 2.13016 4.04785 1.60784 4.95857 1.21945C5.86928 0.831055 6.82352 0.636858 7.82129 0.636858C9.73647 0.636858 11.3804 1.27972 12.7532 2.56543L10.7543 4.48396C9.97085 3.72726 8.99317 3.34891 7.82129 3.34891C6.99763 3.34891 6.23591 3.5565 5.53614 3.97168C4.83636 4.38686 4.28223 4.95103 3.87375 5.6642C3.46527 6.37737 3.26102 7.15583 3.26102 7.99958C3.26102 8.84333 3.46527 9.62179 3.87375 10.335C4.28223 11.0481 4.83636 11.6123 5.53614 12.0275C6.23591 12.4427 6.99763 12.6503 7.82129 12.6503C8.3771 12.6503 8.8877 12.5732 9.3531 12.4192C9.8185 12.2652 10.2019 12.0727 10.5032 11.8417C10.8046 11.6106 11.0674 11.3478 11.2917 11.0532C11.516 10.7585 11.6801 10.4806 11.7839 10.2194C11.8877 9.95829 11.9597 9.71052 11.9999 9.47614H7.82129V6.94489H14.7722C14.8525 7.36677 14.8927 7.77525 14.8927 8.17034ZM23.6014 6.94489V9.05427H21.5021V11.1536H19.3927V9.05427H17.2934V6.94489H19.3927V4.84556H21.5021V6.94489H23.6014Z" fill="#242C33"/>
</svg>
