<svg width="17" height="14" viewBox="0 0 17 14" fill="none" xmlns="http://www.w3.org/2000/svg">
<path d="M16.1332 2.09835C15.6846 2.7546 15.1421 3.31376 14.506 3.77581C14.5127 3.86956 14.516 4.01018 14.516 4.19768C14.516 5.06822 14.3888 5.93708 14.1343 6.80427C13.8799 7.67146 13.4931 8.50349 12.9742 9.30036C12.4552 10.0972 11.8375 10.802 11.1209 11.4148C10.4044 12.0275 9.54058 12.5163 8.52942 12.8813C7.51826 13.2462 6.43678 13.4287 5.285 13.4287C3.47027 13.4287 1.80955 12.9432 0.302856 11.9722C0.537231 11.999 0.798392 12.0124 1.08634 12.0124C2.59303 12.0124 3.93567 11.5504 5.11424 10.6263C4.41112 10.6129 3.78165 10.3969 3.22585 9.97838C2.67004 9.55985 2.28835 9.02581 2.08076 8.37626C2.30174 8.40974 2.50598 8.42648 2.69348 8.42648C2.98143 8.42648 3.26603 8.38965 3.54728 8.31599C2.79728 8.16197 2.17618 7.78864 1.68399 7.19601C1.19181 6.60338 0.945714 5.91532 0.945714 5.13184V5.09166C1.40107 5.34612 1.88991 5.4834 2.41223 5.50349C1.97027 5.20885 1.6187 4.8238 1.35754 4.34835C1.09638 3.87291 0.965803 3.35728 0.965803 2.80148C0.965803 2.21219 1.11312 1.66643 1.40777 1.1642C2.21803 2.16197 3.20408 2.96052 4.36591 3.55985C5.52774 4.15918 6.77161 4.49233 8.0975 4.55929C8.04393 4.30483 8.01714 4.05706 8.01714 3.81599C8.01714 2.91867 8.33355 2.1536 8.96636 1.52079C9.59917 0.887975 10.3642 0.571568 11.2616 0.571568C12.1991 0.571568 12.9892 0.913086 13.6321 1.59612C14.362 1.4555 15.0484 1.19434 15.6912 0.812639C15.4435 1.58273 14.968 2.17871 14.2649 2.60059C14.8877 2.53362 15.5104 2.36621 16.1332 2.09835Z" fill="#F0F0F0"/>
</svg>
