<svg width="13" height="13" viewBox="0 0 13 13" fill="none" xmlns="http://www.w3.org/2000/svg">
<path d="M12.5757 10.0017C12.5757 10.1624 12.546 10.3722 12.4864 10.6311C12.4269 10.8901 12.3644 11.0939 12.2989 11.2427C12.1739 11.5404 11.8108 11.8558 11.2096 12.1892C10.6501 12.4927 10.0965 12.6445 9.54893 12.6445C9.38822 12.6445 9.23197 12.6341 9.08018 12.6133C8.9284 12.5924 8.75726 12.5552 8.56679 12.5017C8.37631 12.4481 8.23494 12.4049 8.14268 12.3722C8.05042 12.3395 7.88524 12.2785 7.64715 12.1892C7.40905 12.0999 7.26322 12.0463 7.20965 12.0285C6.62631 11.8201 6.10548 11.5731 5.64715 11.2874C4.88524 10.8172 4.09804 10.1758 3.28554 9.36328C2.47304 8.55078 1.83167 7.76358 1.36143 7.00167C1.07572 6.54334 0.828692 6.02251 0.620359 5.43917C0.602502 5.3856 0.548931 5.23977 0.459645 5.00167C0.370359 4.76358 0.309347 4.5984 0.276609 4.50614C0.243871 4.41388 0.200716 4.27251 0.147145 4.08203C0.0935734 3.89155 0.0563711 3.72042 0.0355377 3.56864C0.0147044 3.41685 0.00428772 3.2606 0.00428772 3.09989C0.00428772 2.55227 0.156073 1.9987 0.459645 1.43917C0.792978 0.837983 1.10845 0.474888 1.40607 0.349888C1.55488 0.284411 1.75875 0.221911 2.01768 0.162388C2.27661 0.102864 2.48643 0.073102 2.64715 0.073102C2.73048 0.073102 2.79298 0.0820303 2.83465 0.0998878C2.94179 0.135602 3.09953 0.361793 3.30786 0.77846C3.37334 0.891555 3.46262 1.05227 3.57572 1.2606C3.68881 1.46894 3.79298 1.65792 3.88822 1.82757C3.98345 1.99721 4.07572 2.15644 4.165 2.30525C4.18286 2.32905 4.23494 2.40346 4.32125 2.52846C4.40756 2.65346 4.47155 2.75911 4.51322 2.84542C4.55488 2.93173 4.57572 3.01655 4.57572 3.09989C4.57572 3.21894 4.4909 3.36775 4.32125 3.54632C4.15161 3.72489 3.96709 3.88858 3.76768 4.03739C3.56828 4.1862 3.38375 4.34394 3.21411 4.5106C3.04447 4.67727 2.95965 4.81417 2.95965 4.92132C2.95965 4.97489 2.97453 5.04185 3.00429 5.12221C3.03405 5.20257 3.05935 5.26358 3.08018 5.30525C3.10101 5.34691 3.14268 5.41834 3.20518 5.51953C3.26768 5.62072 3.30191 5.67727 3.30786 5.68917C3.76024 6.50465 4.2781 7.20405 4.86143 7.78739C5.44476 8.37072 6.14417 8.88858 6.95965 9.34096C6.97155 9.34691 7.0281 9.38114 7.12929 9.44364C7.23048 9.50614 7.30191 9.5478 7.34357 9.56864C7.38524 9.58947 7.44625 9.61477 7.52661 9.64453C7.60697 9.67429 7.67393 9.68917 7.7275 9.68917C7.83465 9.68917 7.97155 9.60435 8.13822 9.43471C8.30488 9.26507 8.46262 9.08054 8.61143 8.88114C8.76024 8.68173 8.92393 8.49721 9.1025 8.32757C9.28107 8.15792 9.42988 8.0731 9.54893 8.0731C9.63226 8.0731 9.71709 8.09394 9.8034 8.1356C9.8897 8.17727 9.99536 8.24126 10.1204 8.32757C10.2454 8.41388 10.3198 8.46596 10.3436 8.48382C10.4924 8.5731 10.6516 8.66536 10.8213 8.7606C10.9909 8.85584 11.1799 8.96001 11.3882 9.0731C11.5965 9.1862 11.7573 9.27548 11.8704 9.34096C12.287 9.54929 12.5132 9.70703 12.5489 9.81417C12.5668 9.85584 12.5757 9.91834 12.5757 10.0017Z" fill="#FCA311"/>
</svg>
