<svg width="15" height="15" viewBox="0 0 15 15" fill="none" xmlns="http://www.w3.org/2000/svg">
<path d="M3.91322 11.1341C3.91322 11.1341 4.00697 11.2278 4.19447 11.4153C4.38196 11.6028 4.47572 11.9644 4.47572 12.5001C4.47572 13.0359 4.28821 13.4912 3.91322 13.8662C3.53822 14.2412 3.08286 14.4287 2.54714 14.4287C2.01143 14.4287 1.55607 14.2412 1.18107 13.8662C0.806072 13.4912 0.618572 13.0359 0.618572 12.5001C0.618572 11.9644 0.806072 11.5091 1.18107 11.1341C1.55607 10.7591 2.01143 10.5716 2.54714 10.5716C3.08286 10.5716 3.53822 10.7591 3.91322 11.1341ZM9.61857 13.7356C9.63196 13.9231 9.57505 14.0838 9.44781 14.2178C9.32728 14.3584 9.16991 14.4287 8.97571 14.4287H7.61969C7.45228 14.4287 7.3083 14.3735 7.18777 14.263C7.06723 14.1525 7.00027 14.0135 6.98688 13.8461C6.83955 12.3126 6.22181 11.0018 5.13364 9.91364C4.04547 8.82547 2.73464 8.20773 1.20116 8.06041C1.03375 8.04701 0.8948 7.98005 0.784309 7.85951C0.673818 7.73898 0.618572 7.59501 0.618572 7.4276V6.07157C0.618572 5.87737 0.688885 5.72001 0.82951 5.59947C0.943349 5.48563 1.08732 5.42871 1.26143 5.42871H1.31165C2.38308 5.51576 3.40763 5.7853 4.38531 6.2373C5.36299 6.68931 6.23018 7.29701 6.98688 8.06041C7.75027 8.8171 8.35797 9.68429 8.80998 10.662C9.26199 11.6396 9.53152 12.6642 9.61857 13.7356ZM14.7614 13.7557C14.7748 13.9365 14.7146 14.0939 14.5806 14.2278C14.4601 14.3617 14.3061 14.4287 14.1186 14.4287H12.6822C12.5081 14.4287 12.3591 14.3701 12.2352 14.2529C12.1113 14.1357 12.046 13.9934 12.0393 13.826C11.959 12.3863 11.6208 11.0186 11.0248 9.7228C10.4288 8.42704 9.65373 7.30204 8.69949 6.3478C7.74525 5.39355 6.62025 4.61844 5.32449 4.02246C4.02873 3.42648 2.66098 3.08496 1.22125 2.99791C1.05384 2.99121 0.911541 2.92592 0.794353 2.80204C0.677166 2.67815 0.618572 2.53251 0.618572 2.3651V0.928711C0.618572 0.741211 0.685537 0.587193 0.819465 0.466658C0.940001 0.346122 1.08732 0.285854 1.26143 0.285854H1.29156C3.04603 0.372908 4.72516 0.774693 6.32895 1.49121C7.93275 2.20773 9.35741 3.1921 10.6029 4.44434C11.8552 5.68987 12.8396 7.11454 13.5561 8.71833C14.2726 10.3221 14.6744 12.0013 14.7614 13.7557Z" fill="#242C33"/>
</svg>
