<svg width="16" height="13" viewBox="0 0 16 13" fill="none" xmlns="http://www.w3.org/2000/svg">
<path d="M16 4.26876V11.358C16 11.7509 15.8601 12.0872 15.5804 12.367C15.3006 12.6467 14.9643 12.7866 14.5714 12.7866H1.42857C1.03571 12.7866 0.699404 12.6467 0.419642 12.367C0.13988 12.0872 -4.76837e-07 11.7509 -4.76837e-07 11.358V4.26876C0.261904 4.56043 0.5625 4.81936 0.901785 5.04555C3.05655 6.50984 4.53571 7.53662 5.33929 8.12591C5.67857 8.37591 5.95387 8.57085 6.16518 8.71073C6.37649 8.85061 6.65774 8.99347 7.00893 9.1393C7.36012 9.28513 7.6875 9.35805 7.99107 9.35805H8H8.00893C8.3125 9.35805 8.63988 9.28513 8.99107 9.1393C9.34226 8.99347 9.62351 8.85061 9.83482 8.71073C10.0461 8.57085 10.3214 8.37591 10.6607 8.12591C11.6726 7.39376 13.1548 6.36698 15.1071 5.04555C15.4464 4.81341 15.744 4.55448 16 4.26876ZM16 1.64376C16 2.114 15.8542 2.56341 15.5625 2.99198C15.2708 3.42055 14.9077 3.78662 14.4732 4.09019C12.2351 5.64376 10.8423 6.61103 10.2946 6.99198C10.2351 7.03364 10.1086 7.12442 9.91518 7.2643C9.72173 7.40418 9.56101 7.51728 9.43304 7.60359C9.30506 7.68989 9.1503 7.78662 8.96875 7.89376C8.7872 8.00091 8.61607 8.08126 8.45536 8.13484C8.29464 8.18841 8.14583 8.21519 8.00893 8.21519H8H7.99107C7.85417 8.21519 7.70536 8.18841 7.54464 8.13484C7.38393 8.08126 7.2128 8.00091 7.03125 7.89376C6.8497 7.78662 6.69494 7.68989 6.56696 7.60359C6.43899 7.51728 6.27827 7.40418 6.08482 7.2643C5.89137 7.12442 5.76488 7.03364 5.70536 6.99198C5.16369 6.61103 4.38393 6.06787 3.36607 5.36251C2.34821 4.65716 1.73809 4.23305 1.53571 4.09019C1.16667 3.84019 0.818452 3.49644 0.491071 3.05894C0.16369 2.62144 -4.76837e-07 2.21519 -4.76837e-07 1.84019C-4.76837e-07 1.37591 0.123511 0.989001 0.370535 0.679478C0.617559 0.369954 0.970238 0.215192 1.42857 0.215192H14.5714C14.9583 0.215192 15.2932 0.355073 15.5759 0.634835C15.8586 0.914597 16 1.25091 16 1.64376Z" fill="#FCA311"/>
</svg>
