<svg width="15" height="15" viewBox="0 0 15 15" fill="none" xmlns="http://www.w3.org/2000/svg">
<path d="M3.91317 11.1341C3.91317 11.1341 4.00692 11.2278 4.19442 11.4153C4.38192 11.6028 4.47567 11.9644 4.47567 12.5001C4.47567 13.0359 4.28817 13.4912 3.91317 13.8662C3.53817 14.2412 3.08282 14.4287 2.5471 14.4287C2.01139 14.4287 1.55603 14.2412 1.18103 13.8662C0.80603 13.4912 0.61853 13.0359 0.61853 12.5001C0.61853 11.9644 0.80603 11.5091 1.18103 11.1341C1.55603 10.7591 2.01139 10.5716 2.5471 10.5716C3.08282 10.5716 3.53817 10.7591 3.91317 11.1341ZM9.61853 13.7356C9.63192 13.9231 9.575 14.0838 9.44777 14.2178C9.32724 14.3584 9.16987 14.4287 8.97567 14.4287H7.61965C7.45224 14.4287 7.30826 14.3735 7.18773 14.263C7.06719 14.1525 7.00023 14.0135 6.98683 13.8461C6.83951 12.3126 6.22177 11.0018 5.1336 9.91364C4.04543 8.82547 2.7346 8.20773 1.20112 8.06041C1.03371 8.04701 0.894758 7.98005 0.784267 7.85951C0.673776 7.73898 0.61853 7.59501 0.61853 7.4276V6.07157C0.61853 5.87737 0.688843 5.72001 0.829468 5.59947C0.943307 5.48563 1.08728 5.42871 1.26139 5.42871H1.31161C2.38304 5.51576 3.40759 5.7853 4.38527 6.2373C5.36295 6.68931 6.23014 7.29701 6.98683 8.06041C7.75023 8.8171 8.35793 9.68429 8.80994 10.662C9.26195 11.6396 9.53148 12.6642 9.61853 13.7356ZM14.7614 13.7557C14.7748 13.9365 14.7145 14.0939 14.5806 14.2278C14.46 14.3617 14.306 14.4287 14.1185 14.4287H12.6821C12.508 14.4287 12.359 14.3701 12.2352 14.2529C12.1113 14.1357 12.046 13.9934 12.0393 13.826C11.9589 12.3863 11.6208 11.0186 11.0248 9.7228C10.4288 8.42704 9.65369 7.30204 8.69945 6.3478C7.7452 5.39355 6.6202 4.61844 5.32445 4.02246C4.02869 3.42648 2.66094 3.08496 1.22121 2.99791C1.0538 2.99121 0.911499 2.92592 0.794312 2.80204C0.677124 2.67815 0.61853 2.53251 0.61853 2.3651V0.928711C0.61853 0.741211 0.685495 0.587193 0.819423 0.466658C0.939959 0.346122 1.08728 0.285854 1.26139 0.285854H1.29152C3.04599 0.372908 4.72511 0.774693 6.32891 1.49121C7.9327 2.20773 9.35737 3.1921 10.6029 4.44434C11.8551 5.68987 12.8395 7.11454 13.556 8.71833C14.2725 10.3221 14.6743 12.0013 14.7614 13.7557Z" fill="#F0F0F0"/>
</svg>
